<svg width="116" height="146" viewBox="0 0 116 146" fill="none" xmlns="http://www.w3.org/2000/svg">
<path d="M73.8916 145.285C71.238 144.152 70.3926 142.12 70.4457 139.296C70.5746 132.067 70.4874 124.834 70.4874 117.604V115.933C84.1042 124.826 97.6149 124.845 111.349 115.936V117.46C111.349 124.739 111.266 132.017 111.391 139.292C111.44 142.112 110.595 144.148 107.945 145.282H105.674C101.137 142.7 96.5876 140.141 92.0765 137.514C91.2273 137.021 90.6131 137.036 89.7678 137.525C85.2566 140.149 80.7038 142.704 76.1624 145.282H73.8916V145.285Z" fill="white"/>
<path d="M99.9991 55.252C96.2499 54.9791 92.6713 54.3536 89.1269 54.5204C77.5268 55.0663 68.5348 60.5365 62.3671 70.226C55.2668 81.3788 54.8725 93.0205 61.0213 104.81C61.2298 105.212 61.4042 105.69 61.4042 106.133C61.4231 112.183 61.4042 118.237 61.3966 124.288C61.3966 124.42 61.3473 124.557 61.2867 124.853C60.7939 124.853 60.2934 124.853 59.7893 124.853C43.4771 124.853 27.165 124.853 10.8528 124.853C4.16574 124.853 0.113281 120.774 0.113281 114.049C0.113281 79.6274 0.113281 45.21 0.113281 10.7888C0.113281 4.0714 4.16951 0 10.8604 0C37.0061 0 63.1518 0 89.2974 0C95.9049 0 99.9915 4.09036 99.9915 10.7016C99.9915 25.1676 99.9915 39.6374 99.9915 54.1034V55.252H99.9991ZM46.7941 22.6998C40.5051 22.6998 34.216 22.696 27.9269 22.6998C24.8905 22.6998 22.8434 24.5156 22.8206 27.1958C22.7979 29.8759 24.8639 31.7751 27.8511 31.7751C40.38 31.7827 52.9126 31.7827 65.4415 31.7751C68.4363 31.7751 70.4985 29.8835 70.4796 27.2033C70.4606 24.5308 68.3983 22.7036 65.3732 22.6998C59.1789 22.696 52.9846 22.6998 46.7903 22.6998H46.7941ZM46.506 49.941C52.7951 49.941 59.0841 49.9448 65.3732 49.941C68.4021 49.941 70.4606 48.11 70.4833 45.4375C70.5023 42.7573 68.4363 40.8657 65.4491 40.8657C52.9202 40.8619 40.3876 40.8619 27.8587 40.8657C24.8601 40.8657 22.8055 42.7421 22.8244 45.4337C22.8434 48.1024 24.9056 49.941 27.9307 49.9448C34.125 49.9524 40.3193 49.9448 46.5136 49.9448L46.506 49.941ZM38.5679 68.1031C42.2072 68.1031 45.8502 68.1107 49.4894 68.1031C52.5108 68.0955 54.573 66.2607 54.592 63.592C54.6071 60.9118 52.5411 59.0277 49.5501 59.0277C42.3171 59.0202 35.0803 59.0202 27.8473 59.0277C24.8525 59.0277 22.7979 60.9118 22.8206 63.5995C22.8396 66.2228 24.8867 68.0917 27.7905 68.1031C31.3842 68.1183 34.978 68.1031 38.5717 68.1031H38.5679Z" fill="white"/>
<path d="M115.887 88.5928C115.86 102.35 104.59 113.544 90.8175 113.499C77.0604 113.453 65.9001 102.183 65.9494 88.3919C65.9987 74.6386 77.2765 63.5048 91.0867 63.5616C104.768 63.6185 115.913 74.8698 115.887 88.5928ZM87.3868 89.3017C86.3026 88.589 85.3701 87.9446 84.411 87.3494C82.1327 85.9354 79.4525 86.4699 78.0537 88.5928C76.6548 90.7157 77.2121 93.392 79.4298 94.9198C81.5261 96.3679 83.6565 97.7705 85.787 99.1656C88.3914 100.868 90.9009 100.375 92.6372 97.8084C94.7525 94.6809 96.8336 91.5307 98.9224 88.3881C99.836 87.012 100.803 85.6662 101.637 84.2447C102.759 82.3378 102.387 80.1846 100.803 78.6948C99.275 77.2619 97.0952 76.9889 95.3363 78.1868C94.5857 78.6986 93.9754 79.4871 93.4522 80.2529C91.4241 83.206 89.4566 86.197 87.383 89.2979L87.3868 89.3017Z" fill="white"/>
</svg>
