<svg width="36" height="39" viewBox="0 0 36 39" fill="none" xmlns="http://www.w3.org/2000/svg">
<path d="M18 3.25L16.0478 11.7097C15.6668 13.3605 15.4763 14.1859 15.0796 14.8575C14.7287 15.4516 14.263 15.9561 13.7146 16.3363C13.0947 16.766 12.3328 16.9724 10.809 17.3851L3 19.5L10.809 21.6149C12.3328 22.0276 13.0947 22.234 13.7146 22.6637C14.263 23.0439 14.7287 23.5484 15.0796 24.1425C15.4763 24.8141 15.6668 25.6395 16.0478 27.2903L18 35.75L19.9522 27.2903C20.3332 25.6395 20.5237 24.8141 20.9204 24.1425C21.2713 23.5484 21.737 23.0439 22.2854 22.6637C22.9053 22.234 23.6672 22.0276 25.191 21.6149L33 19.5L25.191 17.3851C23.6672 16.9724 22.9053 16.766 22.2854 16.3363C21.737 15.9561 21.2713 15.4516 20.9204 14.8575C20.5237 14.1859 20.3332 13.3605 19.9522 11.7097L18 3.25Z" stroke="#FFC553" stroke-width="2" stroke-linecap="round" stroke-linejoin="round"/>
</svg>
