<svg width="60" height="60" viewBox="0 0 60 60" fill="none" xmlns="http://www.w3.org/2000/svg">
<circle opacity="0.5" cx="30" cy="30" r="30" fill="#D9D9D9"/>
<path d="M19.6878 37.1446L19.667 37.1658C19.3857 36.5405 19.2087 35.8306 19.1357 35.0464C19.2087 35.82 19.4066 36.5193 19.6878 37.1446Z" fill="white"/>
<path d="M26.3747 27.9995C27.7439 27.9995 28.8538 26.8704 28.8538 25.4775C28.8538 24.0846 27.7439 22.9554 26.3747 22.9554C25.0055 22.9554 23.8955 24.0846 23.8955 25.4775C23.8955 26.8704 25.0055 27.9995 26.3747 27.9995Z" fill="white"/>
<path d="M33.8643 19.1194H25.1351C21.3434 19.1194 19.083 21.4189 19.083 25.2761V34.1563C19.083 35.3113 19.2809 36.318 19.6663 37.1658C20.5622 39.1792 22.4788 40.3131 25.1351 40.3131H33.8643C37.6559 40.3131 39.9163 38.0135 39.9163 34.1563V31.7296V25.2761C39.9163 21.4189 37.6559 19.1194 33.8643 19.1194ZM38.2184 30.2461C37.4059 29.5361 36.0934 29.5361 35.2809 30.2461L30.9476 34.0291C30.1351 34.7391 28.8226 34.7391 28.0101 34.0291L27.6559 33.7324C26.9163 33.0754 25.7393 33.0118 24.9059 33.5841L21.0101 36.2439C20.7809 35.6504 20.6455 34.9617 20.6455 34.1563V25.2761C20.6455 22.2878 22.1976 20.7089 25.1351 20.7089H33.8643C36.8018 20.7089 38.3538 22.2878 38.3538 25.2761V30.3626L38.2184 30.2461Z" fill="white"/>
</svg>
