<svg width="452" height="302" viewBox="0 0 452 302" fill="none" xmlns="http://www.w3.org/2000/svg">
<rect width="452" height="302" rx="10" fill="#D9D9D9"/>
<path d="M197.715 172.822L197.655 172.883C196.847 171.088 196.339 169.05 196.13 166.8C196.339 169.02 196.907 171.027 197.715 172.822Z" fill="white"/>
<path d="M216.91 146.572C220.84 146.572 224.026 143.331 224.026 139.333C224.026 135.335 220.84 132.094 216.91 132.094C212.98 132.094 209.794 135.335 209.794 139.333C209.794 143.331 212.98 146.572 216.91 146.572Z" fill="white"/>
<path d="M238.407 121.083H213.351C202.468 121.083 195.979 127.684 195.979 138.755V164.245C195.979 167.56 196.548 170.45 197.654 172.883C200.225 178.662 205.727 181.917 213.351 181.917H238.407C249.29 181.917 255.779 175.316 255.779 164.245V157.279V138.755C255.779 127.684 249.29 121.083 238.407 121.083ZM250.905 153.021C248.573 150.983 244.805 150.983 242.473 153.021L230.035 163.88C227.703 165.918 223.936 165.918 221.603 163.88L220.587 163.028C218.464 161.142 215.085 160.96 212.693 162.602L201.511 170.237C200.853 168.533 200.464 166.556 200.464 164.245V138.755C200.464 130.178 204.919 125.646 213.351 125.646H238.407C246.839 125.646 251.294 130.178 251.294 138.755V153.355L250.905 153.021Z" fill="white"/>
</svg>
