<svg width="144" height="142" viewBox="0 0 144 142" fill="none" xmlns="http://www.w3.org/2000/svg">
<path d="M87.1775 94.5021C86.101 90.533 85.0779 86.7447 84.022 82.8578C88.6854 79.5831 93.6078 76.1235 98.6985 72.5448C99.5819 73.876 100.617 75.4291 101.747 77.1343C99.5573 77.5821 99.1628 79.0079 99.1669 80.8938C99.208 98.426 99.1752 115.958 99.2245 133.49C99.2245 134.92 98.8424 136.017 97.9795 137.118C94.7459 141.24 94.7705 141.26 89.5524 141.26C65.3516 141.26 41.1509 141.252 16.9542 141.285C15.7668 141.285 14.9738 140.948 14.2178 140.036C0.901187 123.991 -2.98162 105.896 3.97045 86.2681C10.8321 66.8911 24.991 55.1605 45.2062 51.1339C57.1176 48.759 68.5442 50.6737 79.3955 56.085C79.8063 56.2904 80.2008 56.5246 80.8746 56.8985C78.7052 57.6586 76.7658 58.3448 74.8183 59.0145C70.5821 60.4773 69.6617 61.7551 69.6617 66.2008C69.6617 66.8993 69.6617 67.5978 69.6617 68.3045C53.769 61.94 39.9922 64.4299 29.2272 77.9889C21.2315 88.0595 20.8 102.403 27.4563 113.394C31.3103 119.755 36.7216 124.278 43.6778 126.9C50.5764 129.497 57.5819 129.603 64.7394 127.418C64.7394 130.277 64.7312 132.989 64.7394 135.701C64.7476 137.924 65.5982 138.787 67.7881 138.799C70.6068 138.815 73.4295 138.807 76.2481 138.799C78.6723 138.795 79.4982 137.985 79.5023 135.594C79.5105 130.622 79.5023 125.651 79.5023 120.675C79.5023 118.391 80.2925 116.262 81.8731 114.29C81.91 114.943 81.9593 115.416 81.9593 115.888C81.9634 122.45 81.9593 129.012 81.9635 135.574C81.9635 137.985 82.7811 138.795 85.193 138.803C88.065 138.811 90.937 138.819 93.805 138.803C95.8101 138.787 96.7222 137.891 96.7222 135.882C96.7345 123.066 96.7345 110.251 96.7222 97.4358C96.7222 95.4266 95.8142 94.535 93.805 94.5145C91.5082 94.4939 89.2072 94.5103 87.1693 94.5103L87.1775 94.5021Z" fill="white"/>
<path d="M64.8669 105.62C64.8258 110.432 64.6984 115.247 64.7847 120.055C64.8135 121.723 64.3122 122.401 62.7057 122.873C47.7004 127.274 32.1363 118.432 28.4836 103.352C24.8226 88.228 34.4988 73.235 49.9068 70.3178C56.4973 69.0687 62.7344 70.2644 68.5648 73.6007C69.3619 74.0568 69.7317 74.5621 69.6865 75.5236C69.6002 77.3643 69.6947 79.2133 69.6536 81.054C69.6002 83.4002 70.4261 85.282 72.501 86.4571C74.5308 87.6075 76.5317 87.3323 78.4423 86.0791C78.6971 85.9147 78.9641 85.7709 79.223 85.6189C82.6292 90.685 82.8346 102.338 79.638 107.461C79.2189 104.852 78.6231 104.351 75.9277 104.347C73.3639 104.347 70.8 104.404 68.2402 104.322C66.8679 104.277 65.7379 104.593 64.8505 105.67C64.8094 105.177 64.7436 104.675 64.7354 104.178C64.6614 100.049 62.0565 96.3839 58.1244 95.0979C56.978 94.724 55.7248 94.6295 54.5127 94.4939C51.9653 94.2104 50.0342 92.1929 49.9807 89.6907C49.9273 87.246 51.7105 85.1135 54.1388 84.715C56.526 84.3205 58.8475 85.8038 59.5871 88.2074C59.7186 88.6347 59.8131 89.0744 59.9199 89.4853H64.7642C64.3862 84.6081 61.8387 81.5594 57.3026 79.9816V77.3767H52.3351C52.9843 79.4763 51.8626 80.1953 50.2149 81.0458C46.5047 82.9605 44.7585 86.2845 45.1201 90.4385C45.4775 94.5144 47.7086 97.3988 51.5914 98.7999C52.7665 99.2272 54.0854 99.2847 55.3509 99.4368C57.8203 99.7367 59.7104 101.717 59.8007 104.158C59.8911 106.598 58.1408 108.755 55.7125 109.195C53.3376 109.627 50.971 108.164 50.2149 105.785C50.067 105.321 49.9561 104.84 49.841 104.417H45.0132C45.2844 108.25 46.854 111.262 50.2642 112.897C51.9283 113.694 52.7994 114.516 52.4789 116.361C52.4666 116.422 52.598 116.509 52.6515 116.566H57.2944C57.3149 116.25 57.3807 115.995 57.3437 115.757C57.1341 114.413 57.5984 113.711 58.9667 113.193C61.3621 112.285 62.981 110.42 63.9753 108.053C64.3081 107.256 64.5669 106.43 64.8587 105.616L64.8669 105.62Z" fill="white"/>
<path d="M106.575 15.4449C114.427 10.2145 121.995 5.16885 129.748 0C132.32 9.00235 134.843 17.8198 137.44 26.9084C133.771 25.8689 130.348 24.8993 126.93 23.9337C123.777 23.0407 121.692 24.1679 120.676 27.3152C115.889 41.9178 108.855 55.2385 97.786 66.0898C94.3716 69.4385 90.4395 72.3023 86.5526 75.121C83.3272 77.4589 79.8142 79.4105 76.4244 81.5224C75.9725 81.8059 75.4835 82.0319 74.7522 82.4223C74.6741 81.6498 74.5878 81.1691 74.5878 80.6884C74.5796 75.6674 74.6166 70.6424 74.5549 65.6215C74.5426 64.5244 74.974 64.0971 75.9273 63.7848C79.3294 62.6713 82.7725 61.6482 86.0924 60.3129C102.33 53.784 113.293 42.3 118.396 25.4498C119.394 22.1505 119.098 21.7108 116.033 20.1741C112.98 18.6457 109.923 17.1172 106.575 15.4408V15.4449Z" fill="white"/>
<path d="M55.0176 18.2143C59.373 18.2143 63.7242 18.2143 68.0795 18.2143C70.7091 18.2143 71.8472 19.1264 72.0404 21.7642C72.1225 22.8818 71.9212 24.1597 71.4199 25.1499C69.8257 28.2972 68.0672 31.3624 66.2798 34.4029C65.9922 34.8918 65.228 35.389 64.6815 35.3931C58.1773 35.4629 51.669 35.4588 45.1648 35.3931C44.606 35.389 43.8253 34.9288 43.5418 34.4481C41.7504 31.4076 39.9302 28.3671 38.4223 25.1869C37.8388 23.9583 37.7402 22.3025 37.9703 20.9302C38.3442 18.695 39.2153 18.2101 41.4956 18.2101C46.003 18.2101 50.5103 18.2101 55.0176 18.2101V18.2143Z" fill="white"/>
<path d="M138.681 50.2792H143.422V133.749H138.681V50.2792Z" fill="white"/>
<path d="M121.453 65.0421H126.191V133.749H121.453V65.0421Z" fill="white"/>
<path d="M104.225 82.2702H108.958V133.753H104.225V82.2702Z" fill="white"/>
<path d="M91.707 133.807H86.9736V99.5518H91.707V133.807Z" fill="white"/>
<path d="M54.8338 45.2829C50.9386 45.2829 47.0394 45.2912 43.1443 45.2829C41.2296 45.2747 40.0996 44.3092 40.1366 42.7684C40.1736 41.281 41.2624 40.3729 43.1073 40.3729C50.9509 40.3647 58.7946 40.3647 66.6383 40.3729C68.5448 40.3729 69.6829 41.3508 69.6459 42.8875C69.6089 44.3667 68.5037 45.2788 66.6753 45.287C62.7267 45.2994 58.7823 45.2911 54.8338 45.2911V45.2829Z" fill="white"/>
<path d="M74.4775 133.807H69.7441V109.392H74.4775V133.807Z" fill="white"/>
</svg>
