<svg width="130" height="129" viewBox="0 0 130 129" fill="none" xmlns="http://www.w3.org/2000/svg">
<path d="M1.08852 65.5626C1.69706 75.0519 4.27503 83.8023 8.81907 91.9843C9.20694 92.6831 9.59815 92.857 10.4006 92.6831C15.6134 91.5663 20.8362 90.513 26.059 89.4464C27.139 89.2257 28.2224 89.0418 29.386 88.8278C27.0688 81.124 25.7113 73.4403 25.2766 65.5626H1.08852ZM25.2866 57.9357C25.6979 50.1717 27.0354 42.6919 29.2054 35.2924C28.7574 35.1754 28.4029 35.065 28.0418 34.9948C22.0433 33.7978 16.038 32.6308 10.0495 31.3803C9.22366 31.2064 8.87926 31.3836 8.50143 32.0825C5.95021 36.7937 3.92395 41.7156 2.77707 46.9484C1.99131 50.5395 1.48307 54.1941 0.831055 57.9357H25.2833H25.2866ZM58.9841 65.5626H32.8099C33.2479 73.1694 34.5987 80.5255 36.8791 87.5639C44.3388 86.9086 51.628 86.2666 58.9841 85.6213V65.5659V65.5626ZM32.8132 57.9257H58.9774V38.3686C51.5378 37.7299 44.1717 37.098 36.7119 36.4593C34.5352 43.3941 33.2278 50.5228 32.8166 57.9223L32.8132 57.9257ZM124.413 57.8722C124.413 57.6013 124.43 57.3573 124.413 57.1132C123.754 48.1321 121.24 39.706 116.913 31.8083C116.569 31.1797 116.194 31.1964 115.596 31.3302C111.409 32.2497 107.22 33.1491 103.02 34.0118C100.83 34.4632 98.6199 34.8243 96.4867 35.2155C97.5065 39.7696 98.5029 44.22 99.5194 48.7674C103.017 48.6069 105.899 50.1182 108.531 52.3317C109.51 53.1576 110.624 53.8564 111.754 54.4683C115.649 56.5681 119.575 58.6278 124.413 57.8722ZM66.6478 38.3619V57.9859C71.0715 57.9859 75.4015 57.9859 79.7316 57.9825C79.9355 57.9825 80.1495 57.9457 80.3434 57.8889C84.3224 56.6986 88.0439 54.9832 91.421 52.5323C92.0663 52.0642 92.2235 51.566 92.0931 50.8438C91.8256 49.3692 91.6651 47.8713 91.3374 46.4101C90.5884 43.053 89.7659 39.7094 89.0002 36.4761C81.3934 37.118 74.0574 37.7366 66.6444 38.3619H66.6478ZM39.2598 29.2002C45.9739 29.7453 52.4506 30.2669 58.9273 30.7918V0C49.9094 8.1318 43.9042 17.9923 39.2598 29.2036V29.2002ZM86.3052 29.1869C81.6107 17.9588 75.6423 8.1017 66.6678 0.0334367V30.8085C73.2147 30.2702 79.6312 29.7419 86.3085 29.1935L86.3052 29.1869ZM39.4571 94.8498C44.0948 105.814 50.0732 115.433 58.9674 123.334V93.188C52.464 93.743 46.0608 94.288 39.4571 94.8498ZM31.3353 28.0233C33.6759 23.3054 35.6687 18.758 38.1263 14.4781C40.5672 10.2316 43.4762 6.256 46.111 2.26366C35.117 4.55073 16.9977 16.919 13.6306 24.6529C19.6291 25.7964 25.5876 26.9299 31.3353 28.0233ZM112.025 24.5927C106.728 15.625 86.7064 2.13995 79.1297 2.34725C85.5228 10.0477 90.2741 18.6476 93.9187 28.0734C99.9674 26.9098 105.949 25.7596 112.028 24.5927H112.025ZM13.7777 99.4607C22.4378 110.344 33.1175 117.597 46.2581 121.208C40.1091 113.608 35.4781 105.175 31.8469 95.99C25.8651 97.1368 19.9535 98.2737 13.7777 99.4607ZM73.9503 115.851C71.339 111.043 68.8947 106.539 66.6311 102.373V123.07C66.7247 123.134 66.815 123.201 66.9086 123.264C69.3495 120.693 71.7937 118.122 73.9537 115.851H73.9503Z" fill="white"/>
<path d="M99.1321 128.072C96.9453 126.294 94.7084 124.568 92.5818 122.723C89.3686 119.937 86.0416 117.249 83.0959 114.2C75.2015 106.034 71.5335 96.0334 71.1188 84.7987C70.9483 80.1744 71.062 75.5401 71.0687 70.9125C71.072 68.368 72.1988 67.0673 74.7333 66.7162C83.1962 65.5392 90.9368 62.6536 97.6375 57.2168C99.316 55.8559 100.948 55.9295 102.757 57.3907C108.05 61.6639 114.078 64.3555 120.675 65.8435C122.013 66.1444 123.367 66.4387 124.731 66.5557C126.888 66.7429 128.419 67.6725 129.168 69.7556V85.5243C129.004 86.835 128.851 88.1457 128.67 89.4531C127.379 98.8221 123.915 107.255 117.211 114.012C112.908 118.349 108.133 122.218 103.536 126.26C102.737 126.962 101.77 127.474 100.884 128.072H99.1321ZM100.165 90.6234C99.9613 90.5164 99.9178 90.5064 99.8877 90.4796C98.5837 89.1923 97.2897 87.8916 95.979 86.6143C94.2369 84.9158 91.9599 84.8188 90.4185 86.3602C88.8871 87.8916 88.9807 90.2155 90.6726 91.9241C92.7824 94.0573 94.909 96.1739 97.0356 98.2904C99.0418 100.287 101.101 100.287 103.128 98.2704C106.14 95.2744 109.14 92.2618 112.146 89.2558C113.353 88.0488 114.59 86.8651 115.757 85.6179C117.228 84.0464 117.181 81.7794 115.717 80.3349C114.255 78.8938 112.009 78.9038 110.424 80.3684C110.086 80.6793 109.775 81.017 109.451 81.3414C106.361 84.4309 103.275 87.5205 100.165 90.6301V90.6234Z" fill="white"/>
<path d="M1.08789 65.5626H25.2793C25.714 73.4403 27.0715 81.124 29.3887 88.8279C28.2251 89.0452 27.1384 89.2291 26.0617 89.4464C20.8389 90.5131 15.6128 91.5663 10.4033 92.6831C9.59752 92.857 9.20966 92.6831 8.82179 91.9843C4.2744 83.8023 1.69644 75.0519 1.08789 65.5626Z" fill="white"/>
<path d="M25.2872 57.9357H0.834961C1.48698 54.1942 1.99187 50.5395 2.78097 46.9484C3.92785 41.7156 5.95411 36.7937 8.50533 32.0825C8.88317 31.3837 9.22422 31.2064 10.0534 31.3803C16.042 32.6308 22.0472 33.7978 28.0457 34.9948C28.4068 35.0684 28.7579 35.1754 29.2093 35.2924C27.0426 42.6919 25.7052 50.1717 25.2905 57.9357H25.2872Z" fill="white"/>
<path d="M58.9877 65.5626V85.6179C51.6316 86.2632 44.3391 86.9052 36.8827 87.5606C34.6057 80.5222 33.2548 73.1694 32.8135 65.5593H58.9877V65.5626Z" fill="white"/>
<path d="M32.8168 57.929C33.2314 50.5262 34.5388 43.4008 36.7122 36.466C44.1719 37.1047 51.538 37.7366 58.9777 38.3753V57.9324H32.8135L32.8168 57.929Z" fill="white"/>
<path d="M124.416 57.8755C119.577 58.6312 115.652 56.5715 111.756 54.4717C110.626 53.8631 109.513 53.1609 108.533 52.3351C105.902 50.1182 103.019 48.6102 99.522 48.7707C98.5055 44.2233 97.5091 39.7729 96.4893 35.2188C98.6225 34.8276 100.829 34.4665 103.023 34.0151C107.222 33.1525 111.412 32.253 115.598 31.3335C116.197 31.2031 116.571 31.1864 116.916 31.8116C121.242 39.7094 123.757 48.1354 124.416 57.1165C124.432 57.3573 124.416 57.6013 124.416 57.8755Z" fill="white"/>
<path d="M66.6514 38.3652C74.0643 37.74 81.4003 37.1214 89.0071 36.4794C89.7728 39.7127 90.5954 43.0564 91.3443 46.4134C91.672 47.8746 91.8325 49.3726 92.1 50.8471C92.2304 51.5727 92.0733 52.0709 91.4279 52.5357C88.0508 54.9832 84.3293 56.7019 80.3504 57.8922C80.1531 57.9524 79.9424 57.9859 79.7385 57.9859C75.4084 57.9925 71.0784 57.9892 66.6547 57.9892V38.3652H66.6514Z" fill="white"/>
<path d="M39.2637 29.2036C43.908 17.9923 49.9132 8.1318 58.9311 0V30.7952C52.4544 30.2702 45.9778 29.7453 39.2637 29.2036Z" fill="white"/>
<path d="M86.3077 29.1902C79.6337 29.7386 73.2139 30.2669 66.667 30.8052V0.0334473C75.638 8.10171 81.6098 17.9588 86.3077 29.1902Z" fill="white"/>
<path d="M39.4609 94.8531C46.0647 94.2914 52.4678 93.7464 58.9712 93.1913V123.338C50.0771 115.437 44.0986 105.817 39.4609 94.8531Z" fill="white"/>
<path d="M31.3385 28.0299C25.5907 26.9366 19.6323 25.7997 13.6338 24.6595C17.0009 16.9256 35.1202 4.55406 46.1142 2.27034C43.4794 6.26268 40.5704 10.2383 38.1295 14.4848C35.6719 18.7646 33.6791 23.312 31.3385 28.0299Z" fill="white"/>
<path d="M112.028 24.5994C105.949 25.7696 99.9676 26.9199 93.9189 28.0801C90.2777 18.6543 85.523 10.0544 79.1299 2.35394C86.7066 2.14329 106.732 15.6283 112.025 24.5994H112.028Z" fill="white"/>
<path d="M13.7773 99.4607C19.9531 98.2737 25.8647 97.1402 31.8465 95.99C35.4811 105.175 40.1121 113.608 46.2577 121.208C33.1171 117.597 22.4374 110.344 13.7773 99.4607Z" fill="white"/>
<path d="M73.9506 115.851C71.7905 118.125 69.3497 120.693 66.9055 123.264C66.8118 123.201 66.7216 123.134 66.6279 123.07V102.373C68.8916 106.539 71.3358 111.043 73.9472 115.851H73.9506Z" fill="white"/>
</svg>
